<svg width="900" height="448" viewBox="0 0 900 448" fill="none" xmlns="http://www.w3.org/2000/svg">
<g clip-path="url(#clip0_0_16)">
<path d="M210.367 233.765V233.34H216.325V233.765H210.367ZM209.516 234.617V234.191H217.176V234.617H209.516ZM209.516 235.468V235.042H211.218V235.468H209.516ZM216.325 235.468V235.042H218.027V235.468H216.325ZM216.325 236.319V235.893H218.027V236.319H216.325ZM208.665 236.319V235.893H210.367V236.319H208.665ZM208.665 237.17V236.744H210.367V237.17H208.665ZM209.516 238.021V237.595H211.218V238.021H209.516ZM209.516 238.872V238.447H214.623V238.872H209.516ZM211.218 239.723V239.298H217.176V239.723H211.218ZM214.623 240.574V240.149H218.027V240.574H214.623ZM216.325 241.426V241H218.027V241.426H216.325ZM216.325 242.277V241.851H218.027V242.277H216.325ZM208.665 242.277V241.851H210.367V242.277H208.665ZM216.325 243.128V242.702H218.027V243.128H216.325ZM208.665 243.128V242.702H211.218V243.128H208.665ZM209.516 243.979V243.553H217.176V243.979H209.516ZM210.367 244.83V244.404H216.325V244.83H210.367ZM221.435 231.212V230.787H223.137V231.212H221.435ZM221.435 232.063V231.638H223.137V232.063H221.435ZM221.435 232.914V232.489H223.137V232.914H221.435ZM219.733 233.765V233.34H226.542V233.765H219.733ZM219.733 234.617V234.191H226.542V234.617H219.733ZM221.435 235.468V235.042H223.137V235.468H221.435ZM221.435 236.319V235.893H223.137V236.319H221.435ZM221.435 237.17V236.744H223.137V237.17H221.435ZM221.435 238.021V237.595H223.137V238.021H221.435ZM221.435 238.872V238.447H223.137V238.872H221.435ZM221.435 239.723V239.298H223.137V239.723H221.435ZM221.435 240.574V240.149H223.137V240.574H221.435ZM221.435 241.426V241H223.137V241.426H221.435ZM221.435 242.277V241.851H223.137V242.277H221.435ZM221.435 243.128V242.702H223.137V243.128H221.435ZM222.286 243.979V243.553H226.542V243.979H222.286ZM223.137 244.83V244.404H226.542V244.83H223.137ZM231.646 233.765V233.34H235.901V233.765H231.646ZM229.943 234.617V234.191H237.603V234.617H229.943ZM235.901 235.468V235.042H237.603V235.468H235.901ZM229.092 235.468V235.042H231.646V235.468H229.092ZM229.092 236.319V235.893H230.795V236.319H229.092ZM236.752 236.319V235.893H238.455V236.319H236.752ZM236.752 237.17V236.744H238.455V237.17H236.752ZM235.901 238.021V237.595H238.455V238.021H235.901ZM231.646 238.872V238.447H238.455V238.872H231.646ZM229.943 239.723V239.298H235.901V239.723H229.943ZM236.752 239.723V239.298H238.455V239.723H236.752ZM229.092 240.574V240.149H231.646V240.574H229.092ZM236.752 240.574V240.149H238.455V240.574H236.752ZM236.752 241.426V241H238.455V241.426H236.752ZM229.092 241.426V241H230.795V241.426H229.092ZM236.752 242.277V241.851H238.455V242.277H236.752ZM229.092 242.277V241.851H230.795V242.277H229.092ZM235.901 243.128V242.702H238.455V243.128H235.901ZM229.092 243.128V242.702H230.795V243.128H229.092ZM236.752 243.979V243.553H239.306V243.979H236.752ZM229.943 243.979V243.553H235.901V243.979H229.943ZM230.795 244.83V244.404H235.05V244.83H230.795ZM237.603 244.83V244.404H239.306V244.83H237.603ZM241.866 229.51V229.084H243.568V229.51H241.866ZM241.866 230.361V229.935H243.568V230.361H241.866ZM241.866 231.212V230.787H243.568V231.212H241.866ZM241.866 232.063V231.638H243.568V232.063H241.866ZM241.866 232.914V232.489H243.568V232.914H241.866ZM241.866 233.765V233.34H243.568V233.765H241.866ZM245.27 233.765V233.34H249.526V233.765H245.27ZM244.419 234.617V234.191H250.377V234.617H244.419ZM241.866 234.617V234.191H243.568V234.617H241.866ZM248.675 235.468V235.042H251.228V235.468H248.675ZM241.866 235.468V235.042H244.419V235.468H241.866ZM249.526 236.319V235.893H251.228V236.319H249.526ZM241.866 236.319V235.893H244.419V236.319H241.866ZM250.377 237.17V236.744H252.079V237.17H250.377ZM241.866 237.17V236.744H243.568V237.17H241.866ZM241.866 238.021V237.595H243.568V238.021H241.866ZM250.377 238.021V237.595H252.079V238.021H250.377ZM250.377 238.872V238.447H252.079V238.872H250.377ZM241.866 238.872V238.447H243.568V238.872H241.866ZM250.377 239.723V239.298H252.079V239.723H250.377ZM241.866 239.723V239.298H243.568V239.723H241.866ZM250.377 240.574V240.149H252.079V240.574H250.377ZM241.866 240.574V240.149H243.568V240.574H241.866ZM250.377 241.426V241H252.079V241.426H250.377ZM241.866 241.426V241H243.568V241.426H241.866ZM241.866 242.277V241.851H244.419V242.277H241.866ZM249.526 242.277V241.851H251.228V242.277H249.526ZM248.675 243.128V242.702H251.228V243.128H248.675ZM241.866 243.128V242.702H244.419V243.128H241.866ZM244.419 243.979V243.553H250.377V243.979H244.419ZM241.866 243.979V243.553H243.568V243.979H241.866ZM241.866 244.83V244.404H243.568V244.83H241.866ZM245.27 244.83V244.404H249.526V244.83H245.27ZM253.789 229.51V229.084H256.342V229.51H253.789ZM253.789 230.361V229.935H257.193V230.361H253.789ZM256.342 231.212V230.787H258.044V231.212H256.342ZM256.342 232.063V231.638H258.044V232.063H256.342ZM256.342 232.914V232.489H258.044V232.914H256.342ZM256.342 233.765V233.34H258.044V233.765H256.342ZM256.342 234.617V234.191H258.044V234.617H256.342ZM256.342 235.468V235.042H258.044V235.468H256.342ZM256.342 236.319V235.893H258.044V236.319H256.342ZM256.342 237.17V236.744H258.044V237.17H256.342ZM256.342 238.021V237.595H258.044V238.021H256.342ZM256.342 238.872V238.447H258.044V238.872H256.342ZM256.342 239.723V239.298H258.044V239.723H256.342ZM256.342 240.574V240.149H258.044V240.574H256.342ZM256.342 241.426V241H258.044V241.426H256.342ZM256.342 242.277V241.851H258.044V242.277H256.342ZM256.342 243.128V242.702H258.044V243.128H256.342ZM253.789 243.979V243.553H260.597V243.979H253.789ZM253.789 244.83V244.404H260.597V244.83H253.789ZM264.85 233.765V233.34H269.957V233.765H264.85ZM263.999 234.617V234.191H270.808V234.617H263.999ZM263.148 235.468V235.042H265.702V235.468H263.148ZM269.106 235.468V235.042H271.659V235.468H269.106ZM269.957 236.319V235.893H271.659V236.319H269.957ZM263.148 236.319V235.893H264.85V236.319H263.148ZM270.808 237.17V236.744H272.51V237.17H270.808ZM262.297 237.17V236.744H263.999V237.17H262.297ZM270.808 238.021V237.595H272.51V238.021H270.808ZM262.297 238.021V237.595H263.999V238.021H262.297ZM262.297 238.872V238.447H272.51V238.872H262.297ZM262.297 239.723V239.298H272.51V239.723H262.297ZM262.297 240.574V240.149H263.999V240.574H262.297ZM262.297 241.426V241H263.999V241.426H262.297ZM270.808 242.277V241.851H272.51V242.277H270.808ZM263.148 242.277V241.851H264.85V242.277H263.148ZM263.148 243.128V242.702H265.702V243.128H263.148ZM269.957 243.128V242.702H272.51V243.128H269.957ZM263.999 243.979V243.553H271.659V243.979H263.999ZM264.85 244.83V244.404H269.957V244.83H264.85ZM282.726 229.51V229.084H285.28V229.51H282.726ZM282.726 230.361V229.935H286.131V230.361H282.726ZM285.28 231.212V230.787H286.982V231.212H285.28ZM285.28 232.063V231.638H286.982V232.063H285.28ZM285.28 232.914V232.489H286.982V232.914H285.28ZM285.28 233.765V233.34H286.982V233.765H285.28ZM285.28 234.617V234.191H286.982V234.617H285.28ZM285.28 235.468V235.042H286.982V235.468H285.28ZM285.28 236.319V235.893H286.982V236.319H285.28ZM285.28 237.17V236.744H286.982V237.17H285.28ZM285.28 238.021V237.595H286.982V238.021H285.28ZM285.28 238.872V238.447H286.982V238.872H285.28ZM285.28 239.723V239.298H286.982V239.723H285.28ZM285.28 240.574V240.149H286.982V240.574H285.28ZM285.28 241.426V241H286.982V241.426H285.28ZM285.28 242.277V241.851H286.982V242.277H285.28ZM285.28 243.128V242.702H286.982V243.128H285.28ZM282.726 243.979V243.553H289.535V243.979H282.726ZM282.726 244.83V244.404H289.535V244.83H282.726ZM293.788 233.765V233.34H298.895V233.765H293.788ZM292.937 234.617V234.191H299.746V234.617H292.937ZM298.044 235.468V235.042H300.597V235.468H298.044ZM292.086 235.468V235.042H294.639V235.468H292.086ZM298.895 236.319V235.893H300.597V236.319H298.895ZM292.086 236.319V235.893H293.788V236.319H292.086ZM299.746 237.17V236.744H301.448V237.17H299.746ZM291.235 237.17V236.744H292.937V237.17H291.235ZM291.235 238.021V237.595H292.937V238.021H291.235ZM299.746 238.021V237.595H301.448V238.021H299.746ZM299.746 238.872V238.447H301.448V238.872H299.746ZM291.235 238.872V238.447H292.937V238.872H291.235ZM291.235 239.723V239.298H292.937V239.723H291.235ZM299.746 239.723V239.298H301.448V239.723H299.746ZM291.235 240.574V240.149H292.937V240.574H291.235ZM299.746 240.574V240.149H301.448V240.574H299.746ZM291.235 241.426V241H292.937V241.426H291.235ZM299.746 241.426V241H301.448V241.426H299.746ZM298.895 242.277V241.851H300.597V242.277H298.895ZM292.086 242.277V241.851H293.788V242.277H292.086ZM298.044 243.128V242.702H300.597V243.128H298.044ZM292.086 243.128V242.702H294.639V243.128H292.086ZM292.937 243.979V243.553H299.746V243.979H292.937ZM293.788 244.83V244.404H298.895V244.83H293.788ZM305.709 233.765V233.34H310.815V233.765H305.709ZM304.858 234.617V234.191H311.666V234.617H304.858ZM309.964 235.468V235.042H312.518V235.468H309.964ZM304.006 235.468V235.042H306.56V235.468H304.006ZM310.815 236.319V235.893H313.369V236.319H310.815ZM304.006 236.319V235.893H305.709V236.319H304.006ZM311.666 237.17V236.744H313.369V237.17H311.666ZM303.155 237.17V236.744H304.858V237.17H303.155ZM303.155 238.021V237.595H304.858V238.021H303.155ZM303.155 238.872V238.447H304.858V238.872H303.155ZM303.155 239.723V239.298H304.858V239.723H303.155ZM303.155 240.574V240.149H304.858V240.574H303.155ZM303.155 241.426V241H304.858V241.426H303.155ZM311.666 241.426V241H313.369V241.426H311.666ZM310.815 242.277V241.851H313.369V242.277H310.815ZM304.006 242.277V241.851H305.709V242.277H304.006ZM304.006 243.128V242.702H306.56V243.128H304.006ZM309.964 243.128V242.702H312.518V243.128H309.964ZM304.858 243.979V243.553H311.666V243.979H304.858ZM305.709 244.83V244.404H310.815V244.83H305.709ZM318.48 233.765V233.34H322.736V233.765H318.48ZM316.778 234.617V234.191H324.438V234.617H316.778ZM322.736 235.468V235.042H324.438V235.468H322.736ZM315.927 235.468V235.042H318.48V235.468H315.927ZM315.927 236.319V235.893H317.629V236.319H315.927ZM323.587 236.319V235.893H325.289V236.319H323.587ZM323.587 237.17V236.744H325.289V237.17H323.587ZM322.736 238.021V237.595H325.289V238.021H322.736ZM318.48 238.872V238.447H325.289V238.872H318.48ZM316.778 239.723V239.298H322.736V239.723H316.778ZM323.587 239.723V239.298H325.289V239.723H323.587ZM315.927 240.574V240.149H318.48V240.574H315.927ZM323.587 240.574V240.149H325.289V240.574H323.587ZM323.587 241.426V241H325.289V241.426H323.587ZM315.927 241.426V241H317.629V241.426H315.927ZM323.587 242.277V241.851H325.289V242.277H323.587ZM315.927 242.277V241.851H317.629V242.277H315.927ZM322.736 243.128V242.702H325.289V243.128H322.736ZM315.927 243.128V242.702H317.629V243.128H315.927ZM323.587 243.979V243.553H326.14V243.979H323.587ZM316.778 243.979V243.553H322.736V243.979H316.778ZM317.629 244.83V244.404H321.885V244.83H317.629ZM324.438 244.83V244.404H326.14V244.83H324.438ZM327.85 229.51V229.084H330.403V229.51H327.85ZM327.85 230.361V229.935H331.254V230.361H327.85ZM330.403 231.212V230.787H332.105V231.212H330.403ZM330.403 232.063V231.638H332.105V232.063H330.403ZM330.403 232.914V232.489H332.105V232.914H330.403ZM330.403 233.765V233.34H332.105V233.765H330.403ZM330.403 234.617V234.191H332.105V234.617H330.403ZM330.403 235.468V235.042H332.105V235.468H330.403ZM330.403 236.319V235.893H332.105V236.319H330.403ZM330.403 237.17V236.744H332.105V237.17H330.403ZM330.403 238.021V237.595H332.105V238.021H330.403ZM330.403 238.872V238.447H332.105V238.872H330.403ZM330.403 239.723V239.298H332.105V239.723H330.403ZM330.403 240.574V240.149H332.105V240.574H330.403ZM330.403 241.426V241H332.105V241.426H330.403ZM330.403 242.277V241.851H332.105V242.277H330.403ZM330.403 243.128V242.702H332.105V243.128H330.403ZM327.85 243.979V243.553H334.659V243.979H327.85ZM327.85 244.83V244.404H334.659V244.83H327.85ZM347.42 233.765V233.34H352.527V233.765H347.42ZM346.569 234.617V234.191H353.378V234.617H346.569ZM345.718 235.468V235.042H348.271V235.468H345.718ZM351.676 235.468V235.042H354.229V235.468H351.676ZM352.527 236.319V235.893H354.229V236.319H352.527ZM345.718 236.319V235.893H347.42V236.319H345.718ZM353.378 237.17V236.744H355.08V237.17H353.378ZM344.867 237.17V236.744H346.569V237.17H344.867ZM353.378 238.021V237.595H355.08V238.021H353.378ZM344.867 238.021V237.595H346.569V238.021H344.867ZM344.867 238.872V238.447H355.08V238.872H344.867ZM344.867 239.723V239.298H355.08V239.723H344.867ZM344.867 240.574V240.149H346.569V240.574H344.867ZM344.867 241.426V241H346.569V241.426H344.867ZM353.378 242.277V241.851H355.08V242.277H353.378ZM345.718 242.277V241.851H347.42V242.277H345.718ZM345.718 243.128V242.702H348.271V243.128H345.718ZM352.527 243.128V242.702H355.08V243.128H352.527ZM346.569 243.979V243.553H354.229V243.979H346.569ZM347.42 244.83V244.404H352.527V244.83H347.42ZM364.447 233.765V233.34H366.15V233.765H364.447ZM356.787 233.765V233.34H358.49V233.765H356.787ZM364.447 234.617V234.191H366.15V234.617H364.447ZM356.787 234.617V234.191H358.49V234.617H356.787ZM364.447 235.468V235.042H366.15V235.468H364.447ZM356.787 235.468V235.042H358.49V235.468H356.787ZM364.447 236.319V235.893H366.15V236.319H364.447ZM356.787 236.319V235.893H358.49V236.319H356.787ZM363.596 237.17V236.744H365.298V237.17H363.596ZM357.638 237.17V236.744H359.341V237.17H357.638ZM357.638 238.021V237.595H359.341V238.021H357.638ZM363.596 238.021V237.595H365.298V238.021H363.596ZM357.638 238.872V238.447H359.341V238.872H357.638ZM363.596 238.872V238.447H365.298V238.872H363.596ZM362.745 239.723V239.298H364.447V239.723H362.745ZM358.49 239.723V239.298H360.192V239.723H358.49ZM362.745 240.574V240.149H364.447V240.574H362.745ZM358.49 240.574V240.149H360.192V240.574H358.49ZM362.745 241.426V241H364.447V241.426H362.745ZM358.49 241.426V241H360.192V241.426H358.49ZM361.894 242.277V241.851H363.596V242.277H361.894ZM359.341 242.277V241.851H361.043V242.277H359.341ZM361.894 243.128V242.702H363.596V243.128H361.894ZM359.341 243.128V242.702H361.043V243.128H359.341ZM360.192 243.979V243.553H362.745V243.979H360.192ZM360.192 244.83V244.404H362.745V244.83H360.192ZM370.408 229.51V229.084H372.111V229.51H370.408ZM370.408 230.361V229.935H372.111V230.361H370.408ZM370.408 231.212V230.787H372.111V231.212H370.408ZM367.855 233.765V233.34H372.111V233.765H367.855ZM367.855 234.617V234.191H372.111V234.617H367.855ZM370.408 235.468V235.042H372.111V235.468H370.408ZM370.408 236.319V235.893H372.111V236.319H370.408ZM370.408 237.17V236.744H372.111V237.17H370.408ZM370.408 238.021V237.595H372.111V238.021H370.408ZM370.408 238.872V238.447H372.111V238.872H370.408ZM370.408 239.723V239.298H372.111V239.723H370.408ZM370.408 240.574V240.149H372.111V240.574H370.408ZM370.408 241.426V241H372.111V241.426H370.408ZM370.408 242.277V241.851H372.111V242.277H370.408ZM370.408 243.128V242.702H372.111V243.128H370.408ZM367.855 243.979V243.553H374.664V243.979H367.855ZM367.855 244.83V244.404H374.664V244.83H367.855ZM384.875 229.51V229.084H386.577V229.51H384.875ZM384.875 230.361V229.935H386.577V230.361H384.875ZM384.875 231.212V230.787H386.577V231.212H384.875ZM384.875 232.063V231.638H386.577V232.063H384.875ZM384.875 232.914V232.489H386.577V232.914H384.875ZM384.875 233.765V233.34H386.577V233.765H384.875ZM378.917 233.765V233.34H383.172V233.765H378.917ZM378.066 234.617V234.191H384.023V234.617H378.066ZM384.875 234.617V234.191H386.577V234.617H384.875ZM377.215 235.468V235.042H379.768V235.468H377.215ZM384.023 235.468V235.042H386.577V235.468H384.023ZM377.215 236.319V235.893H378.917V236.319H377.215ZM384.023 236.319V235.893H386.577V236.319H384.023ZM376.363 237.17V236.744H378.066V237.17H376.363ZM384.875 237.17V236.744H386.577V237.17H384.875ZM384.875 238.021V237.595H386.577V238.021H384.875ZM376.363 238.021V237.595H378.066V238.021H376.363ZM376.363 238.872V238.447H378.066V238.872H376.363ZM384.875 238.872V238.447H386.577V238.872H384.875ZM376.363 239.723V239.298H378.066V239.723H376.363ZM384.875 239.723V239.298H386.577V239.723H384.875ZM376.363 240.574V240.149H378.066V240.574H376.363ZM384.875 240.574V240.149H386.577V240.574H384.875ZM376.363 241.426V241H378.066V241.426H376.363ZM384.875 241.426V241H386.577V241.426H384.875ZM384.023 242.277V241.851H386.577V242.277H384.023ZM377.215 242.277V241.851H378.917V242.277H377.215ZM377.215 243.128V242.702H379.768V243.128H377.215ZM384.023 243.128V242.702H386.577V243.128H384.023ZM378.066 243.979V243.553H384.023V243.979H378.066ZM384.875 243.979V243.553H386.577V243.979H384.875ZM384.875 244.83V244.404H386.577V244.83H384.875ZM378.917 244.83V244.404H383.172V244.83H378.917ZM391.69 233.765V233.34H396.797V233.765H391.69ZM390.839 234.617V234.191H397.648V234.617H390.839ZM389.988 235.468V235.042H392.542V235.468H389.988ZM395.946 235.468V235.042H398.499V235.468H395.946ZM396.797 236.319V235.893H398.499V236.319H396.797ZM389.988 236.319V235.893H391.69V236.319H389.988ZM397.648 237.17V236.744H399.35V237.17H397.648ZM389.137 237.17V236.744H390.839V237.17H389.137ZM397.648 238.021V237.595H399.35V238.021H397.648ZM389.137 238.021V237.595H390.839V238.021H389.137ZM389.137 238.872V238.447H399.35V238.872H389.137ZM389.137 239.723V239.298H399.35V239.723H389.137ZM389.137 240.574V240.149H390.839V240.574H389.137ZM389.137 241.426V241H390.839V241.426H389.137ZM397.648 242.277V241.851H399.35V242.277H397.648ZM389.988 242.277V241.851H391.69V242.277H389.988ZM389.988 243.128V242.702H392.542V243.128H389.988ZM396.797 243.128V242.702H399.35V243.128H396.797ZM390.839 243.979V243.553H398.499V243.979H390.839ZM391.69 244.83V244.404H396.797V244.83H391.69ZM401.909 233.765V233.34H403.611V233.765H401.909ZM405.313 233.765V233.34H409.569V233.765H405.313ZM404.462 234.617V234.191H410.42V234.617H404.462ZM401.909 234.617V234.191H403.611V234.617H401.909ZM408.718 235.468V235.042H411.271V235.468H408.718ZM401.909 235.468V235.042H404.462V235.468H401.909ZM401.909 236.319V235.893H403.611V236.319H401.909ZM409.569 236.319V235.893H411.271V236.319H409.569ZM401.909 237.17V236.744H403.611V237.17H401.909ZM409.569 237.17V236.744H411.271V237.17H409.569ZM409.569 238.021V237.595H411.271V238.021H409.569ZM401.909 238.021V237.595H403.611V238.021H401.909ZM401.909 238.872V238.447H403.611V238.872H401.909ZM409.569 238.872V238.447H411.271V238.872H409.569ZM401.909 239.723V239.298H403.611V239.723H401.909ZM409.569 239.723V239.298H411.271V239.723H409.569ZM409.569 240.574V240.149H411.271V240.574H409.569ZM401.909 240.574V240.149H403.611V240.574H401.909ZM401.909 241.426V241H403.611V241.426H401.909ZM409.569 241.426V241H411.271V241.426H409.569ZM401.909 242.277V241.851H403.611V242.277H401.909ZM409.569 242.277V241.851H411.271V242.277H409.569ZM409.569 243.128V242.702H411.271V243.128H409.569ZM401.909 243.128V242.702H403.611V243.128H401.909ZM409.569 243.979V243.553H411.271V243.979H409.569ZM401.909 243.979V243.553H403.611V243.979H401.909ZM401.909 244.83V244.404H403.611V244.83H401.909ZM409.569 244.83V244.404H411.271V244.83H409.569ZM416.385 233.765V233.34H421.491V233.765H416.385ZM415.534 234.617V234.191H422.343V234.617H415.534ZM420.64 235.468V235.042H423.194V235.468H420.64ZM414.683 235.468V235.042H417.236V235.468H414.683ZM421.491 236.319V235.893H424.045V236.319H421.491ZM414.683 236.319V235.893H416.385V236.319H414.683ZM422.343 237.17V236.744H424.045V237.17H422.343ZM413.831 237.17V236.744H415.534V237.17H413.831ZM413.831 238.021V237.595H415.534V238.021H413.831ZM413.831 238.872V238.447H415.534V238.872H413.831ZM413.831 239.723V239.298H415.534V239.723H413.831ZM413.831 240.574V240.149H415.534V240.574H413.831ZM413.831 241.426V241H415.534V241.426H413.831ZM422.343 241.426V241H424.045V241.426H422.343ZM421.491 242.277V241.851H424.045V242.277H421.491ZM414.683 242.277V241.851H416.385V242.277H414.683ZM414.683 243.128V242.702H417.236V243.128H414.683ZM420.64 243.128V242.702H423.194V243.128H420.64ZM415.534 243.979V243.553H422.343V243.979H415.534ZM416.385 244.83V244.404H421.491V244.83H416.385ZM428.305 233.765V233.34H433.412V233.765H428.305ZM427.454 234.617V234.191H434.263V234.617H427.454ZM426.603 235.468V235.042H429.157V235.468H426.603ZM432.561 235.468V235.042H435.114V235.468H432.561ZM433.412 236.319V235.893H435.114V236.319H433.412ZM426.603 236.319V235.893H428.305V236.319H426.603ZM434.263 237.17V236.744H435.965V237.17H434.263ZM425.752 237.17V236.744H427.454V237.17H425.752ZM434.263 238.021V237.595H435.965V238.021H434.263ZM425.752 238.021V237.595H427.454V238.021H425.752ZM425.752 238.872V238.447H435.965V238.872H425.752ZM425.752 239.723V239.298H435.965V239.723H425.752ZM425.752 240.574V240.149H427.454V240.574H425.752ZM425.752 241.426V241H427.454V241.426H425.752ZM434.263 242.277V241.851H435.965V242.277H434.263ZM426.603 242.277V241.851H428.305V242.277H426.603ZM426.603 243.128V242.702H429.157V243.128H426.603ZM433.412 243.128V242.702H435.965V243.128H433.412ZM427.454 243.979V243.553H435.114V243.979H427.454ZM428.305 244.83V244.404H433.412V244.83H428.305ZM449.586 229.51V229.084H452.99V229.51H449.586ZM448.735 230.361V229.935H452.99V230.361H448.735ZM447.884 231.212V230.787H449.586V231.212H447.884ZM447.884 232.063V231.638H449.586V232.063H447.884ZM447.884 232.914V232.489H449.586V232.914H447.884ZM446.181 233.765V233.34H452.99V233.765H446.181ZM446.181 234.617V234.191H452.99V234.617H446.181ZM447.884 235.468V235.042H449.586V235.468H447.884ZM447.884 236.319V235.893H449.586V236.319H447.884ZM447.884 237.17V236.744H449.586V237.17H447.884ZM447.884 238.021V237.595H449.586V238.021H447.884ZM447.884 238.872V238.447H449.586V238.872H447.884ZM447.884 239.723V239.298H449.586V239.723H447.884ZM447.884 240.574V240.149H449.586V240.574H447.884ZM447.884 241.426V241H449.586V241.426H447.884ZM447.884 242.277V241.851H449.586V242.277H447.884ZM447.884 243.128V242.702H449.586V243.128H447.884ZM447.884 243.979V243.553H449.586V243.979H447.884ZM447.884 244.83V244.404H449.586V244.83H447.884ZM457.243 233.765V233.34H462.35V233.765H457.243ZM456.392 234.617V234.191H463.201V234.617H456.392ZM461.499 235.468V235.042H464.052V235.468H461.499ZM455.541 235.468V235.042H458.094V235.468H455.541ZM462.35 236.319V235.893H464.052V236.319H462.35ZM455.541 236.319V235.893H457.243V236.319H455.541ZM463.201 237.17V236.744H464.903V237.17H463.201ZM454.69 237.17V236.744H456.392V237.17H454.69ZM454.69 238.021V237.595H456.392V238.021H454.69ZM463.201 238.021V237.595H464.903V238.021H463.201ZM463.201 238.872V238.447H464.903V238.872H463.201ZM454.69 238.872V238.447H456.392V238.872H454.69ZM454.69 239.723V239.298H456.392V239.723H454.69ZM463.201 239.723V239.298H464.903V239.723H463.201ZM454.69 240.574V240.149H456.392V240.574H454.69ZM463.201 240.574V240.149H464.903V240.574H463.201ZM454.69 241.426V241H456.392V241.426H454.69ZM463.201 241.426V241H464.903V241.426H463.201ZM462.35 242.277V241.851H464.052V242.277H462.35ZM455.541 242.277V241.851H457.243V242.277H455.541ZM461.499 243.128V242.702H464.052V243.128H461.499ZM455.541 243.128V242.702H458.094V243.128H455.541ZM456.392 243.979V243.553H463.201V243.979H456.392ZM457.243 244.83V244.404H462.35V244.83H457.243ZM472.568 233.765V233.34H475.122V233.765H472.568ZM467.462 233.765V233.34H470.866V233.765H467.462ZM471.717 234.617V234.191H475.122V234.617H471.717ZM467.462 234.617V234.191H470.866V234.617H467.462ZM469.164 235.468V235.042H471.717V235.468H469.164ZM469.164 236.319V235.893H470.866V236.319H469.164ZM469.164 237.17V236.744H470.866V237.17H469.164ZM469.164 238.021V237.595H470.866V238.021H469.164ZM469.164 238.872V238.447H470.866V238.872H469.164ZM469.164 239.723V239.298H470.866V239.723H469.164ZM469.164 240.574V240.149H470.866V240.574H469.164ZM469.164 241.426V241H470.866V241.426H469.164ZM469.164 242.277V241.851H470.866V242.277H469.164ZM469.164 243.128V242.702H470.866V243.128H469.164ZM467.462 243.979V243.553H473.419V243.979H467.462ZM467.462 244.83V244.404H473.419V244.83H467.462ZM493.845 229.51V229.084H495.547V229.51H493.845ZM493.845 230.361V229.935H495.547V230.361H493.845ZM493.845 231.212V230.787H495.547V231.212H493.845ZM493.845 232.063V231.638H495.547V232.063H493.845ZM493.845 232.914V232.489H495.547V232.914H493.845ZM493.845 233.765V233.34H495.547V233.765H493.845ZM487.887 233.765V233.34H492.142V233.765H487.887ZM487.036 234.617V234.191H492.994V234.617H487.036ZM493.845 234.617V234.191H495.547V234.617H493.845ZM486.185 235.468V235.042H488.738V235.468H486.185ZM492.994 235.468V235.042H495.547V235.468H492.994ZM486.185 236.319V235.893H487.887V236.319H486.185ZM492.994 236.319V235.893H495.547V236.319H492.994ZM485.334 237.17V236.744H487.036V237.17H485.334ZM493.845 237.17V236.744H495.547V237.17H493.845ZM493.845 238.021V237.595H495.547V238.021H493.845ZM485.334 238.021V237.595H487.036V238.021H485.334ZM485.334 238.872V238.447H487.036V238.872H485.334ZM493.845 238.872V238.447H495.547V238.872H493.845ZM485.334 239.723V239.298H487.036V239.723H485.334ZM493.845 239.723V239.298H495.547V239.723H493.845ZM485.334 240.574V240.149H487.036V240.574H485.334ZM493.845 240.574V240.149H495.547V240.574H493.845ZM485.334 241.426V241H487.036V241.426H485.334ZM493.845 241.426V241H495.547V241.426H493.845ZM492.994 242.277V241.851H495.547V242.277H492.994ZM486.185 242.277V241.851H487.887V242.277H486.185ZM486.185 243.128V242.702H488.738V243.128H486.185ZM492.994 243.128V242.702H495.547V243.128H492.994ZM487.036 243.979V243.553H492.994V243.979H487.036ZM493.845 243.979V243.553H495.547V243.979H493.845ZM493.845 244.83V244.404H495.547V244.83H493.845ZM487.887 244.83V244.404H492.142V244.83H487.887ZM500.661 233.765V233.34H505.767V233.765H500.661ZM499.809 234.617V234.191H506.618V234.617H499.809ZM498.958 235.468V235.042H501.512V235.468H498.958ZM504.916 235.468V235.042H507.469V235.468H504.916ZM505.767 236.319V235.893H507.469V236.319H505.767ZM498.958 236.319V235.893H500.661V236.319H498.958ZM506.618 237.17V236.744H508.321V237.17H506.618ZM498.107 237.17V236.744H499.809V237.17H498.107ZM506.618 238.021V237.595H508.321V238.021H506.618ZM498.107 238.021V237.595H499.809V238.021H498.107ZM498.107 238.872V238.447H508.321V238.872H498.107ZM498.107 239.723V239.298H508.321V239.723H498.107ZM498.107 240.574V240.149H499.809V240.574H498.107ZM498.107 241.426V241H499.809V241.426H498.107ZM506.618 242.277V241.851H508.321V242.277H506.618ZM498.958 242.277V241.851H500.661V242.277H498.958ZM498.958 243.128V242.702H501.512V243.128H498.958ZM505.767 243.128V242.702H508.321V243.128H505.767ZM499.809 243.979V243.553H507.469V243.979H499.809ZM500.661 244.83V244.404H505.767V244.83H500.661ZM511.73 233.765V233.34H517.688V233.765H511.73ZM510.879 234.617V234.191H518.539V234.617H510.879ZM510.879 235.468V235.042H512.581V235.468H510.879ZM517.688 235.468V235.042H519.39V235.468H517.688ZM517.688 236.319V235.893H519.39V236.319H517.688ZM510.028 236.319V235.893H511.73V236.319H510.028ZM510.028 237.17V236.744H511.73V237.17H510.028ZM510.879 238.021V237.595H512.581V238.021H510.879ZM510.879 238.872V238.447H515.986V238.872H510.879ZM512.581 239.723V239.298H518.539V239.723H512.581ZM515.986 240.574V240.149H519.39V240.574H515.986ZM517.688 241.426V241H519.39V241.426H517.688ZM517.688 242.277V241.851H519.39V242.277H517.688ZM510.028 242.277V241.851H511.73V242.277H510.028ZM517.688 243.128V242.702H519.39V243.128H517.688ZM510.028 243.128V242.702H512.581V243.128H510.028ZM510.879 243.979V243.553H518.539V243.979H510.879ZM511.73 244.83V244.404H517.688V244.83H511.73ZM523.649 229.51V229.084H525.351V229.51H523.649ZM523.649 230.361V229.935H525.351V230.361H523.649ZM523.649 231.212V230.787H525.351V231.212H523.649ZM521.095 233.765V233.34H525.351V233.765H521.095ZM521.095 234.617V234.191H525.351V234.617H521.095ZM523.649 235.468V235.042H525.351V235.468H523.649ZM523.649 236.319V235.893H525.351V236.319H523.649ZM523.649 237.17V236.744H525.351V237.17H523.649ZM523.649 238.021V237.595H525.351V238.021H523.649ZM523.649 238.872V238.447H525.351V238.872H523.649ZM523.649 239.723V239.298H525.351V239.723H523.649ZM523.649 240.574V240.149H525.351V240.574H523.649ZM523.649 241.426V241H525.351V241.426H523.649ZM523.649 242.277V241.851H525.351V242.277H523.649ZM523.649 243.128V242.702H525.351V243.128H523.649ZM521.095 243.979V243.553H527.904V243.979H521.095ZM521.095 244.83V244.404H527.904V244.83H521.095ZM533.008 233.765V233.34H537.264V233.765H533.008ZM538.966 233.765V233.34H540.668V233.765H538.966ZM532.157 234.617V234.191H538.115V234.617H532.157ZM538.966 234.617V234.191H540.668V234.617H538.966ZM531.306 235.468V235.042H533.859V235.468H531.306ZM538.115 235.468V235.042H540.668V235.468H538.115ZM538.115 236.319V235.893H540.668V236.319H538.115ZM530.455 236.319V235.893H533.008V236.319H530.455ZM530.455 237.17V236.744H532.157V237.17H530.455ZM538.966 237.17V236.744H540.668V237.17H538.966ZM530.455 238.021V237.595H532.157V238.021H530.455ZM538.966 238.021V237.595H540.668V238.021H538.966ZM530.455 238.872V238.447H532.157V238.872H530.455ZM538.966 238.872V238.447H540.668V238.872H538.966ZM538.966 239.723V239.298H540.668V239.723H538.966ZM530.455 239.723V239.298H532.157V239.723H530.455ZM530.455 240.574V240.149H532.157V240.574H530.455ZM538.966 240.574V240.149H540.668V240.574H538.966ZM538.115 241.426V241H540.668V241.426H538.115ZM530.455 241.426V241H533.008V241.426H530.455ZM531.306 242.277V241.851H533.859V242.277H531.306ZM538.115 242.277V241.851H540.668V242.277H538.115ZM538.966 243.128V242.702H540.668V243.128H538.966ZM532.157 243.128V242.702H538.115V243.128H532.157ZM533.008 243.979V243.553H537.264V243.979H533.008ZM538.966 243.979V243.553H540.668V243.979H538.966ZM538.966 244.83V244.404H540.668V244.83H538.966ZM530.455 245.681V245.256H532.157V245.681H530.455ZM538.966 245.681V245.256H540.668V245.681H538.966ZM530.455 246.532V246.107H533.008V246.532H530.455ZM538.115 246.532V246.107H540.668V246.532H538.115ZM531.306 247.383V246.958H539.817V247.383H531.306ZM533.008 248.234V247.809H538.115V248.234H533.008ZM544.082 233.765V233.34H545.784V233.765H544.082ZM547.486 233.765V233.34H551.742V233.765H547.486ZM546.635 234.617V234.191H552.593V234.617H546.635ZM544.082 234.617V234.191H545.784V234.617H544.082ZM550.891 235.468V235.042H553.444V235.468H550.891ZM544.082 235.468V235.042H546.635V235.468H544.082ZM544.082 236.319V235.893H545.784V236.319H544.082ZM551.742 236.319V235.893H553.444V236.319H551.742ZM544.082 237.17V236.744H545.784V237.17H544.082ZM551.742 237.17V236.744H553.444V237.17H551.742ZM551.742 238.021V237.595H553.444V238.021H551.742ZM544.082 238.021V237.595H545.784V238.021H544.082ZM544.082 238.872V238.447H545.784V238.872H544.082ZM551.742 238.872V238.447H553.444V238.872H551.742ZM544.082 239.723V239.298H545.784V239.723H544.082ZM551.742 239.723V239.298H553.444V239.723H551.742ZM551.742 240.574V240.149H553.444V240.574H551.742ZM544.082 240.574V240.149H545.784V240.574H544.082ZM544.082 241.426V241H545.784V241.426H544.082ZM551.742 241.426V241H553.444V241.426H551.742ZM544.082 242.277V241.851H545.784V242.277H544.082ZM551.742 242.277V241.851H553.444V242.277H551.742ZM551.742 243.128V242.702H553.444V243.128H551.742ZM544.082 243.128V242.702H545.784V243.128H544.082ZM551.742 243.979V243.553H553.444V243.979H551.742ZM544.082 243.979V243.553H545.784V243.979H544.082ZM544.082 244.83V244.404H545.784V244.83H544.082ZM551.742 244.83V244.404H553.444V244.83H551.742ZM566.215 233.765V233.34H572.173V233.765H566.215ZM565.364 234.617V234.191H573.024V234.617H565.364ZM565.364 235.468V235.042H567.066V235.468H565.364ZM572.173 235.468V235.042H573.875V235.468H572.173ZM572.173 236.319V235.893H573.875V236.319H572.173ZM564.513 236.319V235.893H566.215V236.319H564.513ZM564.513 237.17V236.744H566.215V237.17H564.513ZM565.364 238.021V237.595H567.066V238.021H565.364ZM565.364 238.872V238.447H570.471V238.872H565.364ZM567.066 239.723V239.298H573.024V239.723H567.066ZM570.471 240.574V240.149H573.875V240.574H570.471ZM572.173 241.426V241H573.875V241.426H572.173ZM572.173 242.277V241.851H573.875V242.277H572.173ZM564.513 242.277V241.851H566.215V242.277H564.513ZM572.173 243.128V242.702H573.875V243.128H572.173ZM564.513 243.128V242.702H567.066V243.128H564.513ZM565.364 243.979V243.553H573.024V243.979H565.364ZM566.215 244.83V244.404H572.173V244.83H566.215ZM584.092 233.765V233.34H585.794V233.765H584.092ZM575.58 233.765V233.34H577.283V233.765H575.58ZM575.58 234.617V234.191H577.283V234.617H575.58ZM584.092 234.617V234.191H585.794V234.617H584.092ZM575.58 235.468V235.042H577.283V235.468H575.58ZM584.092 235.468V235.042H585.794V235.468H584.092ZM583.24 236.319V235.893H584.943V236.319H583.24ZM576.432 236.319V235.893H578.134V236.319H576.432ZM583.24 237.17V236.744H584.943V237.17H583.24ZM576.432 237.17V236.744H578.134V237.17H576.432ZM576.432 238.021V237.595H578.134V238.021H576.432ZM583.24 238.021V237.595H584.943V238.021H583.24ZM577.283 238.872V238.447H578.985V238.872H577.283ZM582.389 238.872V238.447H584.092V238.872H582.389ZM577.283 239.723V239.298H578.985V239.723H577.283ZM582.389 239.723V239.298H584.092V239.723H582.389ZM577.283 240.574V240.149H578.985V240.574H577.283ZM582.389 240.574V240.149H584.092V240.574H582.389ZM581.538 241.426V241H583.24V241.426H581.538ZM578.134 241.426V241H579.836V241.426H578.134ZM578.134 242.277V241.851H579.836V242.277H578.134ZM581.538 242.277V241.851H583.24V242.277H581.538ZM578.134 243.128V242.702H579.836V243.128H578.134ZM581.538 243.128V242.702H583.24V243.128H581.538ZM578.985 243.979V243.553H582.389V243.979H578.985ZM578.985 244.83V244.404H582.389V244.83H578.985ZM579.836 245.681V245.256H581.538V245.681H579.836ZM579.836 246.532V246.107H581.538V246.532H579.836ZM576.432 247.383V246.958H580.687V247.383H576.432ZM576.432 248.234V247.809H579.836V248.234H576.432ZM589.203 233.765V233.34H595.161V233.765H589.203ZM588.352 234.617V234.191H596.012V234.617H588.352ZM588.352 235.468V235.042H590.054V235.468H588.352ZM595.161 235.468V235.042H596.863V235.468H595.161ZM595.161 236.319V235.893H596.863V236.319H595.161ZM587.501 236.319V235.893H589.203V236.319H587.501ZM587.501 237.17V236.744H589.203V237.17H587.501ZM588.352 238.021V237.595H590.054V238.021H588.352ZM588.352 238.872V238.447H593.459V238.872H588.352ZM590.054 239.723V239.298H596.012V239.723H590.054ZM593.459 240.574V240.149H596.863V240.574H593.459ZM595.161 241.426V241H596.863V241.426H595.161ZM595.161 242.277V241.851H596.863V242.277H595.161ZM587.501 242.277V241.851H589.203V242.277H587.501ZM595.161 243.128V242.702H596.863V243.128H595.161ZM587.501 243.128V242.702H590.054V243.128H587.501ZM588.352 243.979V243.553H596.012V243.979H588.352ZM589.203 244.83V244.404H595.161V244.83H589.203ZM600.271 231.212V230.787H601.973V231.212H600.271ZM600.271 232.063V231.638H601.973V232.063H600.271ZM600.271 232.914V232.489H601.973V232.914H600.271ZM598.569 233.765V233.34H605.378V233.765H598.569ZM598.569 234.617V234.191H605.378V234.617H598.569ZM600.271 235.468V235.042H601.973V235.468H600.271ZM600.271 236.319V235.893H601.973V236.319H600.271ZM600.271 237.17V236.744H601.973V237.17H600.271ZM600.271 238.021V237.595H601.973V238.021H600.271ZM600.271 238.872V238.447H601.973V238.872H600.271ZM600.271 239.723V239.298H601.973V239.723H600.271ZM600.271 240.574V240.149H601.973V240.574H600.271ZM600.271 241.426V241H601.973V241.426H600.271ZM600.271 242.277V241.851H601.973V242.277H600.271ZM600.271 243.128V242.702H601.973V243.128H600.271ZM601.122 243.979V243.553H605.378V243.979H601.122ZM601.973 244.83V244.404H605.378V244.83H601.973ZM609.631 233.765V233.34H614.737V233.765H609.631ZM608.779 234.617V234.191H615.588V234.617H608.779ZM607.928 235.468V235.042H610.482V235.468H607.928ZM613.886 235.468V235.042H616.439V235.468H613.886ZM614.737 236.319V235.893H616.439V236.319H614.737ZM607.928 236.319V235.893H609.631V236.319H607.928ZM615.588 237.17V236.744H617.291V237.17H615.588ZM607.077 237.17V236.744H608.779V237.17H607.077ZM615.588 238.021V237.595H617.291V238.021H615.588ZM607.077 238.021V237.595H608.779V238.021H607.077ZM607.077 238.872V238.447H617.291V238.872H607.077ZM607.077 239.723V239.298H617.291V239.723H607.077ZM607.077 240.574V240.149H608.779V240.574H607.077ZM607.077 241.426V241H608.779V241.426H607.077ZM615.588 242.277V241.851H617.291V242.277H615.588ZM607.928 242.277V241.851H609.631V242.277H607.928ZM607.928 243.128V242.702H610.482V243.128H607.928ZM614.737 243.128V242.702H617.291V243.128H614.737ZM608.779 243.979V243.553H616.439V243.979H608.779ZM609.631 244.83V244.404H614.737V244.83H609.631ZM623.253 233.765V233.34H625.807V233.765H623.253ZM628.36 233.765V233.34H631.765V233.765H628.36ZM619.849 233.765V233.34H621.551V233.765H619.849ZM627.509 234.617V234.191H632.616V234.617H627.509ZM622.402 234.617V234.191H626.658V234.617H622.402ZM619.849 234.617V234.191H621.551V234.617H619.849ZM624.956 235.468V235.042H627.509V235.468H624.956ZM630.913 235.468V235.042H633.467V235.468H630.913ZM619.849 235.468V235.042H622.402V235.468H619.849ZM625.807 236.319V235.893H627.509V236.319H625.807ZM631.765 236.319V235.893H633.467V236.319H631.765ZM619.849 236.319V235.893H621.551V236.319H619.849ZM625.807 237.17V236.744H627.509V237.17H625.807ZM619.849 237.17V236.744H621.551V237.17H619.849ZM631.765 237.17V236.744H633.467V237.17H631.765ZM631.765 238.021V237.595H633.467V238.021H631.765ZM625.807 238.021V237.595H627.509V238.021H625.807ZM619.849 238.021V237.595H621.551V238.021H619.849ZM619.849 238.872V238.447H621.551V238.872H619.849ZM631.765 238.872V238.447H633.467V238.872H631.765ZM625.807 238.872V238.447H627.509V238.872H625.807ZM619.849 239.723V239.298H621.551V239.723H619.849ZM625.807 239.723V239.298H627.509V239.723H625.807ZM631.765 239.723V239.298H633.467V239.723H631.765ZM619.849 240.574V240.149H621.551V240.574H619.849ZM625.807 240.574V240.149H627.509V240.574H625.807ZM631.765 240.574V240.149H633.467V240.574H631.765ZM631.765 241.426V241H633.467V241.426H631.765ZM625.807 241.426V241H627.509V241.426H625.807ZM619.849 241.426V241H621.551V241.426H619.849ZM619.849 242.277V241.851H621.551V242.277H619.849ZM625.807 242.277V241.851H627.509V242.277H625.807ZM631.765 242.277V241.851H633.467V242.277H631.765ZM619.849 243.128V242.702H621.551V243.128H619.849ZM631.765 243.128V242.702H633.467V243.128H631.765ZM625.807 243.128V242.702H627.509V243.128H625.807ZM631.765 243.979V243.553H633.467V243.979H631.765ZM625.807 243.979V243.553H627.509V243.979H625.807ZM619.849 243.979V243.553H621.551V243.979H619.849ZM631.765 244.83V244.404H633.467V244.83H631.765ZM625.807 244.83V244.404H627.509V244.83H625.807ZM619.849 244.83V244.404H621.551V244.83H619.849ZM653.034 229.51V229.084H654.737V229.51H653.034ZM653.034 230.361V229.935H654.737V230.361H653.034ZM653.034 231.212V230.787H654.737V231.212H653.034ZM653.034 232.063V231.638H654.737V232.063H653.034ZM653.034 232.914V232.489H654.737V232.914H653.034ZM653.034 233.765V233.34H654.737V233.765H653.034ZM647.077 233.765V233.34H651.332V233.765H647.077ZM646.226 234.617V234.191H652.183V234.617H646.226ZM653.034 234.617V234.191H654.737V234.617H653.034ZM645.374 235.468V235.042H647.928V235.468H645.374ZM652.183 235.468V235.042H654.737V235.468H652.183ZM645.374 236.319V235.893H647.077V236.319H645.374ZM652.183 236.319V235.893H654.737V236.319H652.183ZM644.523 237.17V236.744H646.226V237.17H644.523ZM653.034 237.17V236.744H654.737V237.17H653.034ZM653.034 238.021V237.595H654.737V238.021H653.034ZM644.523 238.021V237.595H646.226V238.021H644.523ZM644.523 238.872V238.447H646.226V238.872H644.523ZM653.034 238.872V238.447H654.737V238.872H653.034ZM644.523 239.723V239.298H646.226V239.723H644.523ZM653.034 239.723V239.298H654.737V239.723H653.034ZM644.523 240.574V240.149H646.226V240.574H644.523ZM653.034 240.574V240.149H654.737V240.574H653.034ZM644.523 241.426V241H646.226V241.426H644.523ZM653.034 241.426V241H654.737V241.426H653.034ZM652.183 242.277V241.851H654.737V242.277H652.183ZM645.374 242.277V241.851H647.077V242.277H645.374ZM645.374 243.128V242.702H647.928V243.128H645.374ZM652.183 243.128V242.702H654.737V243.128H652.183ZM646.226 243.979V243.553H652.183V243.979H646.226ZM653.034 243.979V243.553H654.737V243.979H653.034ZM653.034 244.83V244.404H654.737V244.83H653.034ZM647.077 244.83V244.404H651.332V244.83H647.077ZM663.255 233.765V233.34H665.808V233.765H663.255ZM658.148 233.765V233.34H661.553V233.765H658.148ZM662.404 234.617V234.191H665.808V234.617H662.404ZM658.148 234.617V234.191H661.553V234.617H658.148ZM659.85 235.468V235.042H662.404V235.468H659.85ZM659.85 236.319V235.893H661.553V236.319H659.85ZM659.85 237.17V236.744H661.553V237.17H659.85ZM659.85 238.021V237.595H661.553V238.021H659.85ZM659.85 238.872V238.447H661.553V238.872H659.85ZM659.85 239.723V239.298H661.553V239.723H659.85ZM659.85 240.574V240.149H661.553V240.574H659.85ZM659.85 241.426V241H661.553V241.426H659.85ZM659.85 242.277V241.851H661.553V242.277H659.85ZM659.85 243.128V242.702H661.553V243.128H659.85ZM658.148 243.979V243.553H664.106V243.979H658.148ZM658.148 244.83V244.404H664.106V244.83H658.148ZM670.065 229.51V229.084H671.767V229.51H670.065ZM670.065 230.361V229.935H671.767V230.361H670.065ZM670.065 231.212V230.787H671.767V231.212H670.065ZM667.512 233.765V233.34H671.767V233.765H667.512ZM667.512 234.617V234.191H671.767V234.617H667.512ZM670.065 235.468V235.042H671.767V235.468H670.065ZM670.065 236.319V235.893H671.767V236.319H670.065ZM670.065 237.17V236.744H671.767V237.17H670.065ZM670.065 238.021V237.595H671.767V238.021H670.065ZM670.065 238.872V238.447H671.767V238.872H670.065ZM670.065 239.723V239.298H671.767V239.723H670.065ZM670.065 240.574V240.149H671.767V240.574H670.065ZM670.065 241.426V241H671.767V241.426H670.065ZM670.065 242.277V241.851H671.767V242.277H670.065ZM670.065 243.128V242.702H671.767V243.128H670.065ZM667.512 243.979V243.553H674.321V243.979H667.512ZM667.512 244.83V244.404H674.321V244.83H667.512ZM679.425 229.51V229.084H682.829V229.51H679.425ZM678.574 230.361V229.935H682.829V230.361H678.574ZM677.722 231.212V230.787H679.425V231.212H677.722ZM677.722 232.063V231.638H679.425V232.063H677.722ZM677.722 232.914V232.489H679.425V232.914H677.722ZM676.02 233.765V233.34H682.829V233.765H676.02ZM676.02 234.617V234.191H682.829V234.617H676.02ZM677.722 235.468V235.042H679.425V235.468H677.722ZM677.722 236.319V235.893H679.425V236.319H677.722ZM677.722 237.17V236.744H679.425V237.17H677.722ZM677.722 238.021V237.595H679.425V238.021H677.722ZM677.722 238.872V238.447H679.425V238.872H677.722ZM677.722 239.723V239.298H679.425V239.723H677.722ZM677.722 240.574V240.149H679.425V240.574H677.722ZM677.722 241.426V241H679.425V241.426H677.722ZM677.722 242.277V241.851H679.425V242.277H677.722ZM677.722 243.128V242.702H679.425V243.128H677.722ZM677.722 243.979V243.553H679.425V243.979H677.722ZM677.722 244.83V244.404H679.425V244.83H677.722ZM686.231 231.212V230.787H687.933V231.212H686.231ZM686.231 232.063V231.638H687.933V232.063H686.231ZM686.231 232.914V232.489H687.933V232.914H686.231ZM684.529 233.765V233.34H691.338V233.765H684.529ZM684.529 234.617V234.191H691.338V234.617H684.529ZM686.231 235.468V235.042H687.933V235.468H686.231ZM686.231 236.319V235.893H687.933V236.319H686.231ZM686.231 237.17V236.744H687.933V237.17H686.231ZM686.231 238.021V237.595H687.933V238.021H686.231ZM686.231 238.872V238.447H687.933V238.872H686.231ZM686.231 239.723V239.298H687.933V239.723H686.231ZM686.231 240.574V240.149H687.933V240.574H686.231ZM686.231 241.426V241H687.933V241.426H686.231ZM686.231 242.277V241.851H687.933V242.277H686.231ZM686.231 243.128V242.702H687.933V243.128H686.231ZM687.082 243.979V243.553H691.338V243.979H687.082ZM687.933 244.83V244.404H691.338V244.83H687.933Z" fill="white"/>
<path d="M303.041 190.752V150.95H306.502V190.752H303.041ZM313.403 185.56V152.68H328.978V154.411H332.439V156.141H334.169V157.872H335.9V164.794H334.169V166.524H332.439V168.255H328.978V166.524H330.708V164.794H332.439V159.602H330.708V157.872H328.978V156.141H316.864V168.255H328.978V169.985H332.439V171.716H334.169V173.446H335.9V185.56H332.439V175.177H330.708V173.446H328.978V171.716H316.864V185.56H313.403ZM342.844 185.56V152.68H346.305V164.794H348.036V166.524H346.305V185.56H342.844ZM358.419 185.56V166.524H356.688V164.794H348.036V163.063H349.766V161.333H358.419V163.063H360.149V164.794H361.88V185.56H358.419ZM372.277 182.099V176.907H370.547V171.716H368.816V166.524H367.086V161.333H370.547V166.524H372.277V171.716H374.008V176.907H375.738V182.099H379.199V176.907H380.93V171.716H382.66V166.524H384.391V161.333H387.852V166.524H386.121V171.716H384.391V176.907H382.66V182.099H380.93V185.56H379.199V189.021H377.469V190.752H375.738V192.482H368.816V189.021H375.738V185.56H374.008V182.099H372.277ZM394.784 182.099V164.794H391.323V161.333H394.784V156.141H398.245V161.333H405.167V164.794H398.245V182.099H405.167V185.56H398.245V183.83H396.515V182.099H394.784ZM410.354 185.56V152.68H413.815V164.794H415.545V166.524H413.815V185.56H410.354ZM425.928 185.56V166.524H424.198V164.794H415.545V163.063H417.276V161.333H425.928V163.063H427.659V164.794H429.389V185.56H425.928ZM448.439 185.56V166.524H446.709V164.794H441.517V163.063H443.248V161.333H448.439V163.063H450.17V164.794H451.9V185.56H448.439ZM460.553 185.56V166.524H458.822V164.794H451.9V163.063H453.631V161.333H460.553V163.063H462.283V164.794H464.014V185.56H460.553ZM436.326 185.56V161.333H439.787V164.794H441.517V166.524H439.787V185.56H436.326ZM472.656 180.368V178.638H470.925V166.524H472.656V164.794H474.386V163.063H476.117V161.333H484.769V163.063H486.5V164.794H477.847V166.524H476.117V168.255H474.386V176.907H476.117V178.638H477.847V180.368H486.5V182.099H484.769V183.83H476.117V182.099H474.386V180.368H472.656ZM470.925 189.021V185.56H474.386V187.291H476.117V189.021H486.5V187.291H488.23V180.368H486.5V176.907H488.23V168.255H486.5V164.794H488.23V161.333H491.692V189.021H489.961V190.752H486.5V192.482H476.117V190.752H472.656V189.021H470.925ZM498.632 182.099V161.333H502.093V180.368H503.823V182.099H510.745V183.83H509.015V185.56H502.093V183.83H500.362V182.099H498.632ZM512.476 185.56V182.099H510.745V180.368H512.476V161.333H515.937V185.56H512.476ZM522.869 182.099V175.177H524.6V173.446H528.061V171.716H536.713V169.985H538.444V166.524H536.713V164.794H528.061V166.524H526.33V168.255H522.869V164.794H524.6V163.063H528.061V161.333H536.713V163.063H540.175V166.524H541.905V182.099H543.636V185.56H540.175V183.83H538.444V182.099H536.713V180.368H538.444V173.446H536.713V175.177H528.061V176.907H526.33V182.099H536.713V183.83H534.983V185.56H526.33V183.83H524.6V182.099H522.869ZM557.494 164.794V163.063H559.225V161.333H564.416V164.794H557.494ZM548.841 185.56V182.099H552.302V164.794H548.841V161.333H555.763V164.794H557.494V166.524H555.763V182.099H560.955V185.56H548.841ZM581.72 182.099V178.638H583.45V168.255H581.72V164.794H583.45V152.68H586.911V185.56H583.45V182.099H581.72ZM567.876 182.099V178.638H566.145V168.255H567.876V164.794H569.606V163.063H571.337V161.333H579.989V163.063H581.72V164.794H573.067V166.524H571.337V168.255H569.606V178.638H571.337V180.368H573.067V182.099H581.72V183.83H579.989V185.56H571.337V183.83H569.606V182.099H567.876ZM593.848 190.752V150.95H597.309V190.752H593.848Z" fill="white"/>
<path d="M409.113 288.271V287.405H419.496V288.271H409.113ZM405.652 290.001V289.136H421.226V290.001H405.652ZM417.765 291.732V290.866H422.957V291.732H417.765ZM405.652 291.732V290.866H409.113V291.732H405.652ZM419.496 293.462V292.597H422.957V293.462H419.496ZM403.921 293.462V292.597H407.382V293.462H403.921ZM403.921 295.193V294.328H407.382V295.193H403.921ZM419.496 295.193V294.328H422.957V295.193H419.496ZM419.496 296.923V296.058H422.957V296.923H419.496ZM419.496 298.654V297.789H422.957V298.654H419.496ZM417.765 300.384V299.519H421.226V300.384H417.765ZM410.843 302.115V301.25H417.765V302.115H410.843ZM410.843 303.845V302.98H421.226V303.845H410.843ZM417.765 305.576V304.711H422.957V305.576H417.765ZM419.496 307.306V306.441H422.957V307.306H419.496ZM421.226 309.037V308.172H424.687V309.037H421.226ZM421.226 310.767V309.902H424.687V310.767H421.226ZM421.226 312.498V311.633H424.687V312.498H421.226ZM403.921 312.498V311.633H407.382V312.498H403.921ZM421.226 314.228V313.363H424.687V314.228H421.226ZM403.921 314.228V313.363H407.382V314.228H403.921ZM419.496 315.959V315.094H422.957V315.959H419.496ZM403.921 315.959V315.094H409.113V315.959H403.921ZM405.652 317.69V316.824H422.957V317.69H405.652ZM407.382 319.42V318.555H419.496V319.42H407.382ZM429.897 315.959V315.094H435.089V315.959H429.897ZM429.897 317.69V316.824H435.089V317.69H429.897ZM429.897 319.42V318.555H435.089V319.42H429.897ZM453.051 288.271V287.405H456.512V288.271H453.051ZM453.051 290.001V289.136H456.512V290.001H453.051ZM451.321 291.732V290.866H456.512V291.732H451.321ZM449.59 293.462V292.597H456.512V293.462H449.59ZM447.859 295.193V294.328H456.512V295.193H447.859ZM446.129 296.923V296.058H451.321V296.923H446.129ZM453.051 296.923V296.058H456.512V296.923H453.051ZM444.398 298.654V297.789H449.59V298.654H444.398ZM453.051 298.654V297.789H456.512V298.654H453.051ZM442.668 300.384V299.519H447.859V300.384H442.668ZM453.051 300.384V299.519H456.512V300.384H453.051ZM440.937 302.115V301.25H446.129V302.115H440.937ZM453.051 302.115V301.25H456.512V302.115H453.051ZM453.051 303.845V302.98H456.512V303.845H453.051ZM439.207 303.845V302.98H444.398V303.845H439.207ZM453.051 305.576V304.711H456.512V305.576H453.051ZM437.476 305.576V304.711H442.668V305.576H437.476ZM437.476 307.306V306.441H440.937V307.306H437.476ZM453.051 307.306V306.441H456.512V307.306H453.051ZM453.051 309.037V308.172H456.512V309.037H453.051ZM435.746 309.037V308.172H439.207V309.037H435.746ZM435.746 310.767V309.902H459.973V310.767H435.746ZM435.746 312.498V311.633H459.973V312.498H435.746ZM453.051 314.228V313.363H456.512V314.228H453.051ZM453.051 315.959V315.094H456.512V315.959H453.051ZM453.051 317.69V316.824H456.512V317.69H453.051ZM453.051 319.42V318.555H456.512V319.42H453.051ZM465.146 315.959V315.094H470.338V315.959H465.146ZM465.146 317.69V316.824H470.338V317.69H465.146ZM465.146 319.42V318.555H470.338V319.42H465.146ZM480.74 288.271V287.405H489.393V288.271H480.74ZM477.279 290.001V289.136H492.854V290.001H477.279ZM489.393 291.732V290.866H492.854V291.732H489.393ZM477.279 291.732V290.866H480.74V291.732H477.279ZM489.393 293.462V292.597H494.585V293.462H489.393ZM475.549 293.462V292.597H479.01V293.462H475.549ZM487.663 295.193V294.328H494.585V295.193H487.663ZM475.549 295.193V294.328H479.01V295.193H475.549ZM492.854 296.923V296.058H496.315V296.923H492.854ZM473.818 296.923V296.058H477.279V296.923H473.818ZM487.663 296.923V296.058H491.124V296.923H487.663ZM492.854 298.654V297.789H496.315V298.654H492.854ZM485.932 298.654V297.789H489.393V298.654H485.932ZM473.818 298.654V297.789H477.279V298.654H473.818ZM473.818 300.384V299.519H477.279V300.384H473.818ZM492.854 300.384V299.519H496.315V300.384H492.854ZM485.932 300.384V299.519H489.393V300.384H485.932ZM484.201 302.115V301.25H487.663V302.115H484.201ZM473.818 302.115V301.25H477.279V302.115H473.818ZM492.854 302.115V301.25H496.315V302.115H492.854ZM484.201 303.845V302.98H487.663V303.845H484.201ZM473.818 303.845V302.98H477.279V303.845H473.818ZM492.854 303.845V302.98H496.315V303.845H492.854ZM492.854 305.576V304.711H496.315V305.576H492.854ZM482.471 305.576V304.711H485.932V305.576H482.471ZM473.818 305.576V304.711H477.279V305.576H473.818ZM482.471 307.306V306.441H485.932V307.306H482.471ZM492.854 307.306V306.441H496.315V307.306H492.854ZM473.818 307.306V306.441H477.279V307.306H473.818ZM480.74 309.037V308.172H484.201V309.037H480.74ZM473.818 309.037V308.172H477.279V309.037H473.818ZM492.854 309.037V308.172H496.315V309.037H492.854ZM480.74 310.767V309.902H484.201V310.767H480.74ZM473.818 310.767V309.902H477.279V310.767H473.818ZM492.854 310.767V309.902H496.315V310.767H492.854ZM475.549 312.498V311.633H482.471V312.498H475.549ZM491.124 312.498V311.633H494.585V312.498H491.124ZM475.549 314.228V313.363H482.471V314.228H475.549ZM491.124 314.228V313.363H494.585V314.228H491.124ZM477.279 315.959V315.094H480.74V315.959H477.279ZM489.393 315.959V315.094H492.854V315.959H489.393ZM477.279 317.69V316.824H492.854V317.69H477.279ZM480.74 319.42V318.555H489.393V319.42H480.74Z" fill="white"/>
</g>
<defs>
<clipPath id="clip0_0_16">
<rect width="900" height="448" fill="white"/>
</clipPath>
</defs>
</svg>
